<svg width="420" height="290" xmlns="http://www.w3.org/2000/svg">
 <g id="Layer_1">
  <title>Layer 1</title>
  <g stroke="null" id="svg_8">
   <g stroke="null" id="svg_9">
    <title stroke="null">Layer 1</title>
    <g stroke="null" id="svg_1" fill="white">
     <path stroke="null" d="m396.24107,148.64916l0,-0.53042c-5.58432,-27.52759 -17.03329,-45.57509 -34.11304,-54.04539l0,-0.86611l-13.62747,-45.3336c-0.05941,-0.26185 -0.13862,-0.52034 -0.23763,-0.77212c-10.22166,-23.72731 -25.92845,-30.22355 -43.90887,-35.75897c-32.12583,-9.62447 -77.35867,-8.46986 -78.82711,-8.42285c-1.4654,0.047 -47.31469,-1.44354 -79.25294,8.42285c-18.0269,5.53577 -33.73706,12.03167 -44.05082,35.99789l-6.85826,17.90656c-0.84491,1.70205 -0.94393,3.68607 -0.27063,5.4653c0.67329,1.77587 2.05616,3.18246 3.80537,3.86397c1.74591,0.68484 3.69975,0.58413 5.36979,-0.27528c1.67004,-0.86276 2.90436,-2.40367 3.39939,-4.23996l6.76583,-17.66163c7.28731,-16.99043 17.31718,-22.6668 35.62796,-28.3002c29.99751,-9.19133 74.56963,-7.89243 75.4213,-7.89243c0.8515,0 45.04358,-1.29916 75.04109,7.89243c18.16884,5.58278 28.3905,11.21265 35.48601,27.91347l10.59427,36.43103l-26.54185,0c-4.73282,-12.60919 -18.4992,-21.70684 -34.49241,-22.6668c-8.05963,-0.76205 -16.15881,0.98024 -23.22813,4.99194c-7.06949,4.0117 -12.77581,10.10832 -16.37342,17.48373l-72.24953,0c-3.42913,0.29542 -6.06617,3.21271 -6.06617,6.7141c0,3.49804 2.63703,6.41528 6.06617,6.7141l162.47525,0c24.88837,0 40.2648,15.92907 46.98433,48.65692l6.24436,52.60159c0.99344,8.03681 2.79216,23.00626 -1.89115,28.39387c-0.61387,0.72176 -2.55449,2.93409 -8.99064,2.93409l-17.74301,0l0,-17.80601c-0.0264,-3.70283 -2.98353,-6.69064 -6.62389,-6.69064l-145.30678,0c-3.63047,0 -6.57438,2.99451 -6.57438,6.69064c0,3.69278 2.94399,6.69064 6.57438,6.69064l138.4884,0l0,11.11898l-142.70447,-0.00336c-1.84493,-0.15778 -3.67339,0.4767 -5.03969,1.75241c-1.36638,1.2757 -2.142,3.07504 -2.142,4.96169s0.7756,3.68607 2.142,4.96169c1.36638,1.2757 3.19476,1.9102 5.03969,1.75241l108.82378,0l0,20.83713c0,5.73386 2.23765,11.22898 6.22458,15.28108c3.98356,4.05192 9.38605,6.32805 15.01988,6.32805l37.52224,0c5.67337,0.1175 11.15866,-2.08139 15.22772,-6.1065c4.0727,-4.02176 6.38959,-9.53424 6.43911,-15.30772l0,-25.07399c1.3532,-0.91982 2.58093,-2.02098 3.64365,-3.27313c7.94735,-9.09766 6.86156,-24.06333 5.10906,-38.88463l-6.42131,-52.84682zm-134.79616,-60.2056c5.88797,-6.70404 14.57799,-10.14184 23.37345,-9.2386c7.64377,0.282 14.86864,3.61887 20.10621,9.28587l-43.47966,0l0,-0.04727zm119.18231,180.28593c-0.0264,4.52528 -3.64036,8.1811 -8.08929,8.1811l-37.52224,0c-4.44234,0 -8.04307,-3.66253 -8.04307,-8.1811l0,-20.84057l51.57216,0l2.08252,0l-0.00008,20.84057z" id="svg_7" fill="#ff7f00"/>
     <path stroke="null" d="m386.87108,57.15693c-14.76303,0 -23.65734,9.62447 -23.65734,25.74863c0,16.12415 11.35637,18.62502 23.65734,18.62502c18.12237,0 32.36409,-9.62447 32.36409,-22.18639c0,-12.56192 -14.24088,-22.18639 -32.36409,-22.18639l0,-0.00086zm0,30.99185c-10.40923,0 -10.40923,-0.91312 -10.40923,-5.2471c0,-10.2527 4.16513,-12.36769 10.40923,-12.36769c11.54478,0 18.92418,5.29411 18.92418,8.80546c0.0033,3.51479 -7.14207,8.8089 -18.92418,8.8089l0,0.00043z" id="svg_6" fill="#ff7f00"/>
     <path stroke="null" d="m355.08575,171.4062c5.01662,0 9.83216,-2.02768 13.37992,-5.63649c3.55122,-3.61216 5.54469,-8.50673 5.54469,-13.61297l0,-11.50141c0.0264,-5.96882 -2.67336,-11.61228 -7.30378,-15.27764c-4.6305,-3.66253 -10.67369,-4.93823 -16.35314,-3.44432l-44.71407,11.55126c-6.03972,1.53756 -10.94744,5.99907 -13.12898,11.93455c-2.17825,5.93187 -1.3499,12.57567 2.21788,17.76905c3.56778,5.19003 9.41647,8.26507 15.64426,8.21806l44.71322,-0.00009zm-50.53293,-19.24895c0.02971,-2.60503 1.74262,-4.87781 4.21135,-5.58278l44.76054,-11.50141l-0.0033,0c0.47196,-0.07386 0.95052,-0.07386 1.42248,0c1.27395,-0.00671 2.50835,0.43641 3.49841,1.2488c1.4687,1.14138 2.29713,2.93745 2.22447,4.81404l0,11.50141c0,3.22612 -2.55449,5.84464 -5.72288,5.87145l-44.61859,0c-1.61723,0.00671 -3.1618,-0.67812 -4.26086,-1.88665c-1.09576,-1.20514 -1.64359,-2.82667 -1.51162,-4.46487l0.00001,0z" id="svg_5" fill="#ff7f00"/>
     <path stroke="null" d="m208.1652,190.32169c0,3.69613 2.94399,6.69064 6.57776,6.69064l94.01259,0c3.42913,-0.29542 6.06287,-3.21271 6.06287,-6.7141s-2.63374,-6.41872 -6.06287,-6.7141l-94.01259,0c-3.64036,0.02686 -6.57776,3.03817 -6.57776,6.73756z" id="svg_4" fill="#ff7f00"/>
     <path stroke="null" d="m99.67938,139.69416c-12.3466,0 -24.19217,4.98859 -32.92173,13.87165c-8.73294,8.87937 -13.63761,20.92479 -13.63761,33.48671c0,12.55848 4.90442,24.6039 13.63761,33.48327c8.72956,8.88281 20.57513,13.87165 32.92173,13.87165s24.18879,-4.98859 32.92173,-13.87165c8.72956,-8.87937 13.63423,-20.92479 13.63423,-33.48327c-0.0099,-12.55848 -4.9209,-24.59359 -13.64691,-33.47296c-8.72956,-8.87937 -20.56499,-13.87165 -32.90821,-13.88454l-0.00084,-0.00086zm0,81.33492c-8.86136,0.01343 -17.36702,-3.55845 -23.64044,-9.92355c-6.2741,-6.36836 -9.80259,-15.0095 -9.81188,-24.02294c-0.0066,-9.01344 3.505,-17.66163 9.76879,-24.04013c6.26092,-6.37842 14.75965,-9.96394 23.62101,-9.97081c8.86136,-0.00336 17.36027,3.5753 23.63115,9.94675c6.26751,6.37171 9.78907,15.01638 9.78907,24.03325c-0.01321,8.99711 -3.53145,17.62467 -9.78231,23.99286c-6.25095,6.36836 -14.73008,9.95706 -23.57454,9.9837l-0.00084,0.00086z" id="svg_3" fill="#ff7f00"/>
     <path stroke="null" d="m191.65575,190.1756c5.50836,-1.58792 8.94417,-7.16056 7.94735,-12.89795l-2.74265,-15.83539l0,0.00336c-1.0231,-5.70696 -6.09253,-9.72502 -11.7822,-9.33571l-19.87217,1.49055l-4.30707,-7.55675l11.21443,-16.74808c3.22779,-4.81404 2.32349,-11.33641 -2.08252,-15.06279l-12.06609,-10.34637l0.0033,0c-4.38624,-3.75654 -10.86126,-3.50809 -14.9506,0.57742l-14.19525,14.09939l-8.04307,-2.98445l-2.03301,-20.16593l-0.0033,0.00335c-0.58087,-5.77417 -5.3665,-10.1616 -11.06995,-10.15473l-15.89773,0c-5.7064,-0.00671 -10.48865,4.38099 -11.07248,10.15473l-2.03301,20.16593l-8.04307,2.98445l-14.19525,-14.09939l0,-0.00335c-4.09255,-4.08552 -10.56807,-4.33398 -14.9506,-0.57742l-12.11256,10.34637c-4.39283,3.73979 -5.27407,10.25957 -2.03639,15.06279l11.16542,16.74808l-4.16183,7.55675l-19.91779,-1.49055l-0.0033,0c-5.67675,-0.38606 -10.73283,3.63571 -11.7332,9.33571l-2.74265,15.83539l0,-0.00336c-1.00003,5.72381 2.40933,11.29 7.90121,12.89795l19.16245,5.48541l1.32346,8.66452l-16.13262,11.79361c-4.67004,3.38391 -6.04301,9.823 -3.17169,14.86856l7.90121,13.90861c2.80534,5.08931 8.95092,7.1707 14.19525,4.81404l18.16884,-8.27847l6.57776,5.62979l-4.73282,19.63568l0,0.00336c-1.32346,5.55253 1.61394,11.2393 6.86156,13.28038l14.8585,5.48541l-0.0033,0.00335c1.30369,0.48678 2.68325,0.71505 4.0694,0.67141c4.27733,0.00672 8.17513,-2.48084 10.02987,-6.39853l8.6569,-18.23915l8.5648,0l8.70675,18.23915l0.0033,0c2.47532,5.2336 8.44576,7.70783 13.81589,5.72716l14.8585,-5.48541l-0.0033,-0.00335c5.38297,-1.97397 8.41272,-7.785 7.0035,-13.42476l-4.73282,-19.63568l6.57776,-5.62979l18.16884,8.32548l0,-0.00336c5.24433,2.36001 11.38932,0.27528 14.19525,-4.81069l7.71305,-13.81407c2.87792,-5.0356 1.5281,-11.47133 -3.12547,-14.86856l-16.32019,-11.79361l1.4654,-8.61381l19.16001,-5.53667zm-29.38326,24.06333l15.66032,11.55126l-6.05298,10.77951l-17.65091,-8.1811c-3.8978,-1.78258 -8.45243,-1.14808 -11.7332,1.6382l-8.51495,7.315l-0.0033,0c-3.2773,2.78636 -4.69319,7.24117 -3.64036,11.45415l4.73282,19.24895l-11.35637,4.23661l-8.47186,-17.75874c-1.84823,-3.88073 -5.69652,-6.35822 -9.93439,-6.40188l-11.21443,0c-4.25756,0.01007 -8.1421,2.47079 -10.02987,6.35152l-8.42269,17.75874l-11.40284,-4.23661l4.73282,-19.24895c1.00992,-4.22655 -0.39605,-8.67139 -3.64365,-11.50141l-8.5648,-7.26799c-3.2806,-2.74941 -7.81208,-3.3638 -11.68673,-1.58792l-17.64753,8.1811l-6.05628,-10.63513l15.71017,-11.55126l-0.0033,0c3.47205,-2.54126 5.2014,-6.88194 4.44893,-11.16539l-1.94066,-11.16539l0,0.00336c-0.7426,-4.26342 -3.80866,-7.71788 -7.90121,-8.90601l-18.6403,-5.38804l2.07923,-11.93799l19.30439,1.44354c4.25427,0.28871 8.30052,-1.89 10.45908,-5.62979l5.58432,-9.62447l-0.0033,0c2.12215,-3.7666 1.95714,-8.42956 -0.42576,-12.03167l-10.97701,-16.70167l9.46209,-7.89243l13.91136,13.71696c3.06608,3.00456 7.54475,3.97475 11.54478,2.50439l10.50555,-3.85056c4.02648,-1.53421 6.83849,-5.27056 7.2378,-9.62791l1.89445,-19.68209l12.11256,0l1.94066,19.58841c0.41585,4.36079 3.24427,8.09723 7.28401,9.62447l10.4557,3.85056l0.0033,0c4.01659,1.4805 8.51157,0.51027 11.59125,-2.50439l13.86151,-13.71696l9.46209,7.89243l-11.02348,16.41291c-2.40274,3.59541 -2.56775,8.27177 -0.42576,12.03167l5.5348,9.62447l0.0033,0c2.17825,3.71624 6.2114,5.88495 10.4557,5.63314l19.30439,-1.44354l2.12874,12.12878l-18.6403,5.57943c-4.09255,1.18838 -7.16192,4.64276 -7.90121,8.90601l-1.94066,11.16539l0,-0.00336c-0.7822,4.24331 0.86797,8.57059 4.25756,11.16539l0.18641,-0.14369z" id="svg_2" fill="#ff7f00"/>
    </g>
   </g>
  </g>
 </g>

</svg>