<svg width="420" height="270" xmlns="http://www.w3.org/2000/svg">
 <g id="Layer_1">
  <title>Layer 1</title>
  <g id="svg_9" stroke="null">
   <g id="svg_1" stroke="null">
    <title stroke="null">Layer 1</title>
    <g id="svg_2" stroke="null">
     <g id="svg_3" stroke="null">
      <path id="svg_8" d="m405.54366,214.45414c-1.71282,-0.14982 -3.442,0.07223 -5.0137,0.6394l-86.30853,31.27198l-17.59014,0c-5.41068,0 -9.80095,3.57697 -9.80095,7.99127c0,4.41165 4.38699,7.99127 9.80095,7.99127l19.67751,0c1.37153,0 2.72669,-0.23275 3.9801,-0.68756l88.1985,-31.96236c4.94802,-1.79249 7.176,-6.51712 4.97758,-10.54864c-1.42403,-2.60846 -4.44276,-4.39828 -7.92409,-4.69792l0.00277,0.00254l0,-0.00001l0,0.00002l0,0.00001z" fill-rule="evenodd" fill="#ff7f00" stroke="null"/>
      <path id="svg_7" d="m170.28623,6.6564c-2.33617,0 -4.59699,0.67954 -6.37532,1.91824l-8.68881,6.07036l-53.53565,0c-1.37153,0 -2.72669,0.23275 -3.9801,0.68756l-88.1985,31.96236c-9.67915,3.50204 -6.60833,15.29492 3.9801,15.29217l30.73844,0c5.41068,0 9.80095,-3.57697 9.80095,-7.99127c-0.04593,-1.86742 -0.89248,-3.6599 -2.39203,-5.07242l52.13791,-18.89879l28.57631,0l-22.85349,15.97981l-26.69894,0c-5.41068,0 -9.80095,3.57697 -9.80095,7.99127c0,4.41165 4.38699,7.99127 9.80095,7.99127l9.08865,0l0,23.97108l-78.39754,0c-5.41068,0 -9.80095,3.57697 -9.80095,7.99127c0,4.41165 4.38699,7.99127 9.80095,7.99127l78.39754,0l0,23.97108l-78.39754,0c-5.41068,0 -9.80095,3.57697 -9.80095,7.99127c0,4.41165 4.38699,7.99127 9.80095,7.99127l78.39754,0l0,23.97108l-12.80643,0c-5.41068,0 -9.80095,3.57697 -9.80095,7.99127c0,4.41165 4.38699,7.99127 9.80095,7.99127l12.80643,-0.00536l0,23.97108l-78.39754,0c-5.41068,0 -9.80095,3.57697 -9.80095,7.99127c0,4.41165 4.38699,7.99127 9.80095,7.99127l78.39754,0l0,23.97108l-78.39754,0c-5.41068,0 -9.80095,3.57697 -9.80095,7.99127c0,4.41165 4.38699,7.99127 9.80095,7.99127l242.79785,0c5.41068,0 9.80095,-3.57697 9.80095,-7.99127c0,-4.41165 -4.38699,-7.99127 -9.80095,-7.99127l-27.20126,-0.00267l0,-23.97108l88.1985,0c1.37153,0 2.72669,-0.23275 3.9801,-0.68756l88.1985,-31.96236c4.94802,-1.79249 7.176,-6.51712 4.97758,-10.54864c-1.42403,-2.60846 -4.44276,-4.39828 -7.92409,-4.69792c-1.71282,-0.14982 -3.442,0.07223 -5.0137,0.6394l-86.30853,31.27746l-86.11533,0l0,-23.97108l88.1985,0c1.37153,0 2.72669,-0.23275 3.9801,-0.68756l88.1985,-31.96236c4.94802,-1.79249 7.176,-6.51712 4.97758,-10.54864c-1.42403,-2.60846 -4.44276,-4.39828 -7.92409,-4.69792c-1.71282,-0.14982 -3.442,0.07223 -5.0137,0.6394l-86.30853,31.27746l-86.11533,0l0,-23.97108l88.1985,0c1.37153,0 2.72669,-0.23275 3.9801,-0.68756l88.1985,-31.96236c4.94802,-1.79249 7.176,-6.51712 4.97758,-10.54864c-1.42403,-2.60846 -4.44276,-4.39828 -7.92409,-4.69792c-1.71282,-0.14982 -3.442,0.07223 -5.0137,0.6394l-86.30853,31.27473l-86.11533,0l0,-23.97108l88.1985,0c1.37153,0 2.72669,-0.23275 3.9801,-0.68756l88.1985,-31.96236c4.94802,-1.79249 7.176,-6.51712 4.97758,-10.54864c-1.42403,-2.60846 -4.44276,-4.39828 -7.92409,-4.69792c-1.71282,-0.14982 -3.442,0.07223 -5.0137,0.6394l-86.30853,31.27746l-86.11533,0l0,-20.3035l5.24664,-3.66792l82.95195,0c1.37153,0 2.72669,-0.23275 3.9801,-0.68756l88.1985,-31.96236c9.67915,-3.50204 6.60833,-15.29492 -3.9801,-15.29217l-107.92976,0c0,-4.3715 -4.30493,-7.92963 -9.66655,-7.99127l-28.27056,0c-5.41068,0 -9.80095,3.57697 -9.80095,7.99127c0,4.41165 4.38699,7.99127 9.80095,7.99127l1.7817,0l-48.48313,33.88072c-2.17539,1.51689 -3.42555,3.73476 -3.42555,6.07036l0,183.77598l-98.00113,0l0,-180.11183l62.4185,-43.61914l24.9963,0c5.41068,0 9.80095,-3.57697 9.80095,-7.99127c0,-4.41165 -4.38699,-7.99127 -9.80095,-7.99127l-28.58757,0.00607l-0.00005,-0.00003l0,0.00006l0.00002,0.00004l0,-0.00001zm109.78612,23.97108l79.22073,0l-44.09925,15.97981l-57.99513,0l22.87365,-15.97981l-0.00001,0l0.00001,0z" fill-rule="evenodd" fill="#ff7f00" stroke="null"/>
      <path id="svg_6" d="m12.51436,166.46405c-5.41068,0 -9.80095,3.57697 -9.80095,7.99127c0,2.1189 1.03361,4.14945 2.87108,5.65033c1.83746,1.49819 4.33113,2.33828 6.92987,2.33828l26.23947,0c2.60203,0 5.09241,-0.84008 6.92987,-2.33828c1.83746,-1.50086 2.87108,-3.53142 2.87108,-5.65033s-1.03361,-4.15214 -2.87108,-5.65033s-4.32786,-2.34095 -6.92987,-2.34095l-26.23947,0l0,0.00001z" fill-rule="evenodd" fill="#ff7f00" stroke="null"/>
      <path id="svg_5" d="m159.51185,100.54359c-2.6184,0 -5.12853,0.84008 -6.97584,2.33287c-1.85058,1.49285 -2.88745,3.51539 -2.88089,5.62623l0,9.23777c-12.6359,3.25589 -22.04962,12.57387 -22.04962,23.70604c0,13.87994 14.63424,24.96896 31.90602,24.96896c7.06772,0 12.17308,4.16549 12.17308,9.08299s-5.10551,9.0508 -12.17308,9.0508c-7.06772,0 -12.19323,-4.13611 -12.19323,-9.0508l0,0.00267c0.00984,-4.39027 -4.39354,-7.95087 -9.83707,-7.95908c-2.62167,-0.00537 -5.13508,0.832 -6.98893,2.32486c-1.85385,1.49285 -2.894,3.52073 -2.88745,5.6343c0,11.13217 9.41371,20.45007 22.04962,23.70604l0,9.23777c-0.00656,2.10816 1.03032,4.13343 2.88089,5.62623c1.8473,1.49285 4.35742,2.33287 6.97584,2.33287c2.6184,0 5.12853,-0.84008 6.97584,-2.33287c1.85058,-1.49285 2.88745,-3.51807 2.88089,-5.62623l0,-9.23777c12.63255,-3.25589 22.0303,-12.57387 22.0303,-23.70604c0,-13.87994 -14.61407,-24.96896 -31.8867,-24.96896c-7.06772,0 -12.19323,-4.16549 -12.19323,-9.08299c0,-4.91729 5.12526,-9.0508 12.19323,-9.0508c7.06772,0 12.17308,4.13611 12.17308,9.0508l0,-0.00267c-0.00328,2.11083 1.03032,4.13343 2.88089,5.62896c1.85058,1.49285 4.35742,2.33018 6.97584,2.33018c2.6184,0 5.12853,-0.83741 6.97584,-2.33018c1.85058,-1.49552 2.88745,-3.51807 2.88089,-5.62896c0,-11.13217 -9.39776,-20.45007 -22.0303,-23.70604l0,-9.23777c0.00656,-2.11083 -1.03032,-4.13343 -2.88089,-5.62623c-1.8473,-1.49285 -4.35742,-2.33287 -6.97584,-2.33287l0.00084,-0.00006l-0.00001,-0.00001l0,0.00001l0,-0.00001l-0.00001,-0.00001z" fill-rule="evenodd" fill="#ff7f00" stroke="null"/>
      <path id="svg_4" d="m228.27309,7.00706c-5.41068,0 -9.80095,3.57697 -9.80095,7.98853c0,2.1189 1.03361,4.15214 2.87108,5.65033s4.33113,2.34095 6.92987,2.34095s5.09241,-0.84276 6.92987,-2.34095s2.87108,-3.53142 2.87108,-5.65033s-1.03361,-4.14945 -2.87108,-5.65033c-1.83746,-1.49819 -4.33113,-2.33828 -6.92987,-2.33828l0,0.00006l0,0.00001l0,0.00001z" fill-rule="evenodd" fill="#ff7f00" stroke="null"/>
     </g>
    </g>
   </g>
  </g>
 </g>

</svg>