<svg width="310" height="110" xmlns="http://www.w3.org/2000/svg" xmlns:undefined="http://www.inkscape.org/namespaces/inkscape">
 <g id="Layer_1">
  <title>Layer 1</title>
  <g stroke="null">

   <metadata stroke="null" id="svg_51">image/svg+xml</metadata>
   <g stroke="null" id="svg_2"  >
    <g stroke="null" fill-rule="evenodd" clip-rule="evenodd" id="svg_49" transform="matrix(2.22172 0 0 2.42367 -2179.93 -1799.27)">
     <path stroke="null" fill="#f9f9fa" id="svg_50" d="m1118.95228,755.27126c0.295,7.0878 -0.038,14.0878 -1,21c-22.475,4.3537 -45.142,7.6871 -68,10c-19.0286,-2.266 -38.0286,-4.766 -57,-7.5c-3.6545,-0.331 -6.9879,-1.4976 -10,-3.5c0,-6.6667 0,-13.3333 0,-20c2.2682,-1.965 4.9349,-3.1317 8,-3.5c20.0957,-2.8662 40.2624,-5.0329 60.5,-6.5c19.896,1.5494 39.729,3.716 59.5,6.5c3.065,0.3683 5.732,1.535 8,3.5z" />
    </g>
    <g stroke="null" fill-rule="evenodd" clip-rule="evenodd" id="svg_47" transform="matrix(2.22172 0 0 2.42367 -2179.93 -1799.27)">
     <path stroke="null" fill="#596db8" id="svg_48" d="m1118.95228,754.27126c0,0.3333 0,0.6667 0,1c-2.268,-1.965 -4.935,-3.1317 -8,-3.5c-19.771,-2.784 -39.604,-4.9506 -59.5,-6.5c-20.2376,1.4671 -40.4043,3.6338 -60.5,6.5c-3.0651,0.3683 -5.7318,1.535 -8,3.5c-0.3333,0 -0.6667,0 -1,0c3.1348,-3.4461 7.1348,-5.2794 12,-5.5c18.996,-2.2033 37.996,-4.3699 57,-6.5c21.785,2.098 43.452,4.9314 65,8.5c1.442,0.3768 2.442,1.2101 3,2.5z" />
    </g>
    <g stroke="null" fill-rule="evenodd" clip-rule="evenodd" id="svg_45" transform="matrix(2.22172 0 0 2.42367 -2179.93 -1799.27)">
     <path stroke="null" fill="#fffcfa" id="svg_46" d="m1027.95228,759.27126c1.1005,-1.1049 1.7671,-2.4382 2,-4c6.036,-1.4464 12.036,-1.2797 18,0.5c0.7931,1.0852 1.4598,2.2519 2,3.5c-7.4898,1.3194 -14.8231,1.3194 -22,0z" />
    </g>
    <g stroke="null" fill-rule="evenodd" clip-rule="evenodd" id="svg_43" transform="matrix(2.22172 0 0 2.42367 -2179.93 -1799.27)">
     <path stroke="null" fill="#ffa54f" id="svg_44" d="m1053.95228,758.27126c-1,0 -2,0 -3,0c0,1 0,2 0,3c-8.0277,0.331 -16.0277,-0.0023 -24,-1c0.1236,-0.6067 0.4569,-0.94 1,-1c7.1769,1.3194 14.5102,1.3194 22,0c-0.5402,-1.2481 -1.2069,-2.4148 -2,-3.5c-5.964,-1.7797 -11.964,-1.9464 -18,-0.5c0.1107,-0.6174 0.444,-1.1174 1,-1.5c8.7492,-2.974 16.4158,-1.474 23,4.5z" />
    </g>
    <g stroke="null" fill-rule="evenodd" clip-rule="evenodd" id="svg_41" transform="matrix(2.22172 0 0 2.42367 -2179.93 -1799.27)">
     <path stroke="null" fill="#222222" id="svg_42" d="m990.95228,755.27126c0.9959,-0.0858 1.8292,0.2476 2.5,1c1.1873,5.4459 2.6873,10.7792 4.5,16c-0.825,0.8857 -1.825,1.219 -3,1c0,-1.3333 0,-2.6667 0,-4c-2.424,-0.3076 -4.7573,0.0258 -7,1c1.6667,1.6667 1.3333,2.6667 -1,3c-0.6667,-0.3333 -1.3333,-0.6667 -2,-1c1.6112,-5.8351 3.6112,-11.5018 6,-17z" />
    </g>
    <g stroke="null" fill-rule="evenodd" clip-rule="evenodd" id="svg_39" transform="matrix(2.22172 0 0 2.42367 -2179.93 -1799.27)">
     <path stroke="null" fill="#1d1d1d" id="svg_40" d="m1062.95228,762.27126c-1.531,-1.4245 -1.198,-2.0912 1,-2c0.487,0.9734 0.987,1.9734 1.5,3c1,-2 2,-4 3,-6c1.011,-0.8366 2.178,-1.17 3.5,-1c-0.285,5.3968 0.049,10.7302 1,16c-1.189,0.9287 -2.522,1.262 -4,1c0.897,-4.6398 1.064,-9.3065 0.5,-14c-1.001,2.6732 -2.501,5.0065 -4.5,7c-1.205,-1.0769 -1.872,-2.4102 -2,-4z" />
    </g>
    <g stroke="null" fill-rule="evenodd" clip-rule="evenodd" id="svg_37" transform="matrix(2.22172 0 0 2.42367 -2179.93 -1799.27)">
     <path stroke="null" fill="#3d4d87" id="svg_38" d="m981.95228,755.27126c0.3333,0 0.6667,0 1,0c0,6.6667 0,13.3333 0,20c-0.3333,0 -0.6667,0 -1,0c-1.3333,-6.6667 -1.3333,-13.3333 0,-20z" />
    </g>
    <g stroke="null" fill-rule="evenodd" clip-rule="evenodd" id="svg_35" transform="matrix(2.22172 0 0 2.42367 -2179.93 -1799.27)">
     <path stroke="null" fill="#1f1f1f" id="svg_36" d="m1014.95228,751.27126c1.8079,1.4179 2.4746,3.4179 2,6c1.4778,-0.262 2.8112,0.0713 4,1c-0.8202,1.6112 -2.1536,2.2778 -4,2c0,3.6667 0,7.3333 0,11c1.175,-0.219 2.175,0.1143 3,1c-1.5064,1.2472 -3.0064,1.2472 -4.5,0c-0.4988,-3.9862 -0.6655,-7.9862 -0.5,-12c-3.7998,-0.3194 -3.9665,-1.3194 -0.5,-3c0.4955,-1.9727 0.6621,-3.9727 0.5,-6z" />
    </g>
    <g stroke="null" fill-rule="evenodd" clip-rule="evenodd" id="svg_33" transform="matrix(2.22172 0 0 2.42367 -2179.93 -1799.27)">
     <path stroke="null" fill="#626262" id="svg_34" d="m1063.95228,760.27126c-2.198,-0.0912 -2.531,0.5755 -1,2c-0.977,2.7869 -1.31,5.7869 -1,9c-0.823,-3.477 -1.323,-7.1437 -1.5,-11c-0.177,3.8563 -0.677,7.523 -1.5,11c0,-5 0,-10 0,-15c2.844,-0.1574 4.511,1.176 5,4z" />
    </g>
    <g stroke="null" fill-rule="evenodd" clip-rule="evenodd" id="svg_31" transform="matrix(2.22172 0 0 2.42367 -2179.93 -1799.27)">
     <path stroke="null" fill="#33457c" id="svg_32" d="m1118.95228,754.27126c0.617,0.1107 1.117,0.444 1.5,1c0.667,6.6667 0.667,13.3333 0,20c-0.383,0.556 -0.883,0.8893 -1.5,1c-0.333,0 -0.667,0 -1,0c0.962,-6.9122 1.295,-13.9122 1,-21c0,-0.3333 0,-0.6667 0,-1z" />
    </g>
    <g stroke="null" fill-rule="evenodd" clip-rule="evenodd" id="svg_29" transform="matrix(2.22172 0 0 2.42367 -2179.93 -1799.27)">
     <path stroke="null" fill="#ff8619" id="svg_30" d="m1029.95228,755.27126c-0.2329,1.5618 -0.8995,2.8951 -2,4c-0.5431,0.06 -0.8764,0.3933 -1,1c7.9723,0.9977 15.9723,1.331 24,1c0,-1 0,-2 0,-3c1,0 2,0 3,0c0.173,5.2927 -0.16,10.626 -1,16c-1.333,0 -2.6667,0 -4,0c0,-1 0,-2 0,-3c-6.6667,0 -13.3333,0 -20,0c0,1 0,2 0,3c-1.3333,0 -2.6667,0 -4,0c-0.2719,-4.4017 0.0614,-8.7351 1,-13c-1.3532,-1.0237 -2.0198,-2.357 -2,-4c2.3583,0.2475 4.3583,-0.4192 6,-2z" />
    </g>
    <g stroke="null" fill-rule="evenodd" clip-rule="evenodd" id="svg_27" transform="matrix(2.22172 0 0 2.42367 -2179.93 -1799.27)">
     <path stroke="null" fill="#e5e5e5" id="svg_28" d="m990.95228,759.27126c1.5863,1.5808 2.5863,3.5808 3,6c-1.3498,1.4501 -3.0165,2.1168 -5,2c0.0838,-2.8274 0.7504,-5.494 2,-8z" />
    </g>
    <g stroke="null" fill-rule="evenodd" clip-rule="evenodd" id="svg_25" transform="matrix(2.22172 0 0 2.42367 -2179.93 -1799.27)">
     <path stroke="null" fill="#2d2d2d" id="svg_26" d="m1106.95228,760.27126c3.018,-0.1646 6.018,0.002 9,0.5c1.231,1.1827 1.231,2.3493 0,3.5c-1.571,-0.8094 -3.238,-1.1427 -5,-1c-0.24,3.0788 0.093,6.0788 1,9c-1.578,0.5724 -3.078,0.9057 -4.5,1c0.761,-4.2965 0.594,-8.6298 -0.5,-13z" />
    </g>
    <g stroke="null" fill-rule="evenodd" clip-rule="evenodd" id="svg_23" transform="matrix(2.22172 0 0 2.42367 -2179.93 -1799.27)">
     <path stroke="null" fill="#494949" id="svg_24" d="m1001.95228,769.27126c-0.8382,0.3417 -1.1716,1.0084 -1,2c-1.548,-3.0445 -2.548,-6.3779 -3,-10c0.7888,-1.9879 1.9555,-2.3213 3.5,-1c0.498,2.9816 0.6646,5.9816 0.5,9z" />
    </g>
    <g stroke="null" fill-rule="evenodd" clip-rule="evenodd" id="svg_21" transform="matrix(2.22172 0 0 2.42367 -2179.93 -1799.27)">
     <path stroke="null" fill="#2d2d2d" id="svg_22" d="m1078.95228,760.27126c5.225,2.5999 6.392,6.5999 3.5,12c-4.983,3.0624 -7.816,1.5624 -8.5,-4.5c-0.152,-3.8981 1.515,-6.3981 5,-7.5z" />
    </g>
    <g stroke="null" fill-rule="evenodd" clip-rule="evenodd" id="svg_19" transform="matrix(2.22172 0 0 2.42367 -2179.93 -1799.27)">
     <path stroke="null" fill="#2d2d2d" id="svg_20" d="m1098.95228,760.27126c6.295,0.4836 8.461,3.8169 6.5,10c-3.212,5.2987 -6.545,5.2987 -10,0c-0.271,-3.8005 0.896,-7.1339 3.5,-10z" />
    </g>
    <g stroke="null" fill-rule="evenodd" clip-rule="evenodd" id="svg_17" transform="matrix(2.22172 0 0 2.42367 -2179.93 -1799.27)">
     <path stroke="null" fill="#ffefdf" id="svg_18" d="m1027.95228,762.27126c2.4118,0.1941 3.4118,1.5274 3,4c-1.3333,0 -2.6667,0 -4,0c-0.0674,-1.4587 0.2659,-2.7921 1,-4z" />
    </g>
    <g stroke="null" fill-rule="evenodd" clip-rule="evenodd" id="svg_15" transform="matrix(2.22172 0 0 2.42367 -2179.93 -1799.27)">
     <path stroke="null" fill="#fefffe" id="svg_16" d="m1047.95228,763.27126c1,0 2,0 3,0c0,1 0,2 0,3c-1,0 -2,0 -3,0c0,-1 0,-2 0,-3z" />
    </g>
    <g stroke="null" fill-rule="evenodd" clip-rule="evenodd" id="svg_13" transform="matrix(2.22172 0 0 2.42367 -2179.93 -1799.27)">
     <path stroke="null" fill="#f2f2f2" id="svg_14" d="m1076.95228,763.27126c1.644,-0.2135 3.144,0.1198 4.5,1c0.769,2.5991 0.602,5.0991 -0.5,7.5c-1.399,0.5946 -2.732,0.4279 -4,-0.5c-1.114,-2.6562 -1.114,-5.3229 0,-8z" />
    </g>
    <g stroke="null" fill-rule="evenodd" clip-rule="evenodd" id="svg_11" transform="matrix(2.22172 0 0 2.42367 -2179.93 -1799.27)">
     <path stroke="null" fill="#1f1f1f" id="svg_12" d="m1088.95228,751.27126c1.808,1.4179 2.475,3.4179 2,6c1,0 2,0 3,0c0,1 0,2 0,3c-1.333,0 -2.667,0 -4,0c-0.165,3.3499 0.002,6.6832 0.5,10c1.205,0.5712 2.372,1.2379 3.5,2c-1.853,1.2596 -3.686,1.2596 -5.5,0c-0.499,-3.9862 -0.666,-7.9862 -0.5,-12c-3.8,-0.3194 -3.966,-1.3194 -0.5,-3c0.315,-2.0856 0.815,-4.0856 1.5,-6z" />
    </g>
    <g stroke="null" fill-rule="evenodd" clip-rule="evenodd" id="svg_9" transform="matrix(2.22172 0 0 2.42367 -2179.93 -1799.27)">
     <path stroke="null" fill="#ededed" id="svg_10" d="m1098.95228,763.27126c4.713,-0.0324 6.213,2.3009 4.5,7c-3.172,2.8883 -5.339,2.2216 -6.5,-2c0.402,-1.8002 1.069,-3.4668 2,-5z" />
    </g>
    <g stroke="null" fill-rule="evenodd" clip-rule="evenodd" id="svg_7" transform="matrix(2.22172 0 0 2.42367 -2179.93 -1799.27)">
     <path stroke="null" fill="#222222" id="svg_8" d="m1000.95228,771.27126c-0.1716,-0.9916 0.1618,-1.6583 1,-2c1.0417,1.2911 2.2083,1.2911 3.5,0c0.3925,-3.133 1.2259,-6.133 2.5,-9c0.486,4.197 1.486,8.197 3,12c-2.6667,0.3333 -5.3333,0.6667 -8,1c-1.2133,-0.2472 -1.88,-0.9138 -2,-2z" />
    </g>
    <g stroke="null" fill-rule="evenodd" clip-rule="evenodd" id="svg_5" transform="matrix(2.22172 0 0 2.42367 -2179.93 -1799.27)">
     <path stroke="null" fill="#101010" id="svg_6" d="m1061.95228,771.27126c1.554,1.3946 1.221,2.0613 -1,2c-1.213,-0.2472 -1.88,-0.9138 -2,-2c0.823,-3.477 1.323,-7.1437 1.5,-11c0.177,3.8563 0.677,7.523 1.5,11z" />
    </g>
    <g stroke="null" fill-rule="evenodd" clip-rule="evenodd" id="svg_3" transform="matrix(2.22172 0 0 2.42367 -2179.93 -1799.27)">
     <path stroke="null" fill="#596eb9" id="svg_4" d="m981.95228,775.27126c0.3333,0 0.6667,0 1,0c3.0121,2.0024 6.3455,3.169 10,3.5c18.9714,2.734 37.9714,5.234 57,7.5c22.858,-2.3129 45.525,-5.6463 68,-10c0.333,0 0.667,0 1,0c-2.234,1.9459 -4.901,3.1126 -8,3.5c-20.288,2.9222 -40.621,5.4222 -61,7.5c-19.7127,-2.0779 -39.3794,-4.5779 -59,-7.5c-3.6105,-0.4717 -6.6105,-1.9717 -9,-4.5z" />
    </g>
   </g>
  </g>
 </g>

</svg>