<svg width="390" height="340" xmlns="http://www.w3.org/2000/svg">
 <g id="Layer_1">
  <title>Layer 1</title>
  <g stroke="null">
   <rect stroke="null" fill="none" y="-5.00049" x="19.11805" height="200.483" width="221.6727" id="svg_15"/>
   <g stroke="null" class="currentLayer">
    <title stroke="null">Layer 1</title>
    <g stroke="#ff7f00" fill="#ff7f00" class="selected" id="svg_1">
     <g stroke="#ff7f00" fill="#ff7f00" id="svg_2">
      <title stroke="null" transform="translate(-6.86274528503418,1.9607843160629272) translate(4.901960849761963,-30.39215660095215) translate(-1.9607843160629272,1.9607843160629272) translate(-0.9803921580314636,26.47058868408203) translate(-1.9607843160629272,0) translate(1.9607843160629272,0) " fill="#FFB27C">Layer 1</title>
      <g stroke="#ff7f00" fill="#ff7f00" id="svg_3">
       <path stroke="#ff7f00" fill="#ff7f00" d="m194.23837,336.99934c-87.75397,0 -159.14963,-74.06667 -159.14963,-165.10365s71.39566,-165.10365 159.14963,-165.10365s159.14963,74.06667 159.14963,165.10365c0,42.26182 -18.43919,85.25245 -50.58685,117.93118c-2.16699,2.19741 -5.64174,2.16286 -7.75968,-0.08522c-2.11817,-2.24346 -2.08486,-5.84591 0.08215,-8.04998c30.05143,-30.54948 47.28961,-70.57002 47.28961,-109.79392c0,-84.76303 -66.47339,-153.71739 -148.17399,-153.71739s-148.17399,68.96025 -148.17399,153.71739s66.47339,153.71739 148.17399,153.71739c3.02845,0 5.4885,2.54979 5.4885,5.69384c-0.00222,3.14175 -2.46006,5.69154 -5.49078,5.69154l0.0014,-0.00116z" id="svg_14"/>
       <path stroke="#ff7f00" fill="#ff7f00" d="m298.95315,291.45432c-2.71759,0 -5.07557,-2.09605 -5.43303,-4.96372l-7.01395,-56.46663c-0.38855,-3.12105 1.73405,-5.97262 4.74255,-6.37536c2.99071,-0.44455 5.75724,1.79432 6.14545,4.91997l6.31028,50.8189l48.98626,-6.54636c2.99071,-0.44455 5.75724,1.79432 6.14545,4.91997c0.38855,3.12105 -1.73405,5.97262 -4.74255,6.37536l-54.43031,7.27635c-0.23757,0.02994 -0.47514,0.04146 -0.71049,0.04146l0.00034,0.00005z" id="svg_13"/>
       <path stroke="#ff7f00" fill="#ff7f00" d="m194.34637,177.59177c-3.02845,0 -5.4885,-2.54979 -5.4885,-5.69384l0,-91.09004c0,-3.14175 2.45784,-5.69384 5.4885,-5.69384c3.02845,0 5.4885,2.54979 5.4885,5.69384l0,91.09004c0,3.14175 -2.46006,5.69384 -5.4885,5.69384z" id="svg_12"/>
       <path stroke="#ff7f00" fill="#ff7f00" d="m249.22457,177.59177l-54.87877,0c-3.02845,0 -5.4885,-2.54979 -5.4885,-5.69384c0,-3.14175 2.45784,-5.69384 5.4885,-5.69384l54.87877,0c3.02845,0 5.4885,2.54979 5.4885,5.69384c0,3.14175 -2.45784,5.69384 -5.4885,5.69384z" id="svg_11"/>
       <path stroke="#ff7f00" fill="#ff7f00" d="m194.23837,52.33824c-3.02845,0 -5.4885,-2.54979 -5.4885,-5.69384l0,-11.38567c0,-3.14175 2.45784,-5.69384 5.4885,-5.69384c3.02845,0 5.4885,2.54979 5.4885,5.69384l0,11.38567c0,3.14175 -2.45784,5.69384 -5.4885,5.69384z" id="svg_10"/>
       <path stroke="#ff7f00" fill="#ff7f00" d="m194.23837,314.22683c-3.02845,0 -5.4885,-2.54979 -5.4885,-5.69384l0,-11.38567c0,-3.14175 2.45784,-5.69384 5.4885,-5.69384c3.02845,0 5.4885,2.54979 5.4885,5.69384l0,11.38567c0,3.14405 -2.45784,5.69384 -5.4885,5.69384z" id="svg_9"/>
       <path stroke="#ff7f00" fill="#ff7f00" d="m73.50633,177.59177l-10.97507,0c-3.02845,0 -5.4885,-2.54979 -5.4885,-5.69384c0,-3.14175 2.45784,-5.69384 5.4885,-5.69384l10.97507,0c3.02845,0 5.4885,2.54979 5.4885,5.69384c0,3.14175 -2.45784,5.69384 -5.4885,5.69384z" id="svg_8"/>
       <path stroke="#ff7f00" fill="#ff7f00" d="m325.95174,177.59177l-10.97507,0c-3.02845,0 -5.4885,-2.54979 -5.4885,-5.69384c0,-3.14175 2.45784,-5.69384 5.4885,-5.69384l10.97507,0c3.02845,0 5.4885,2.54979 5.4885,5.69384c-0.00222,3.14175 -2.46006,5.69384 -5.4885,5.69384z" id="svg_7"/>
       <path stroke="#ff7f00" fill="#ff7f00" d="m108.87165,89.02545c-1.40546,0 -2.81087,-0.55741 -3.88103,-1.66761l-7.76423,-8.0547c-2.14477,-2.22501 -2.14477,-5.82515 0,-8.04998c2.14477,-2.22501 5.61508,-2.22501 7.75968,0l7.76423,8.0547c2.14477,2.22501 2.14477,5.82515 0,8.04998c-1.06795,1.1079 -2.47341,1.66761 -3.87882,1.66761l0.00017,0z" id="svg_6"/>
       <path stroke="#ff7f00" fill="#ff7f00" d="m101.10742,274.20688c-1.40546,0 -2.81087,-0.55741 -3.88103,-1.66761c-2.14477,-2.22501 -2.14477,-5.82515 0,-8.04998l7.76423,-8.0547c2.14477,-2.22501 5.61508,-2.22501 7.75968,0c2.14477,2.22501 2.14477,5.82515 0,8.04998l-7.76423,8.0547c-1.07017,1.1102 -2.47563,1.66761 -3.87882,1.66761l0.00017,0z" id="svg_5"/>
       <path stroke="#ff7f00" fill="#ff7f00" d="m279.61078,89.02545c-1.40546,0 -2.81087,-0.55741 -3.88103,-1.66761c-2.14477,-2.22501 -2.14477,-5.82515 0,-8.04998l7.76423,-8.0547c2.14477,-2.22501 5.61508,-2.22501 7.75968,0c2.14477,2.22501 2.14477,5.82515 0,8.04998l-7.76423,8.0547c-1.06795,1.1079 -2.47341,1.66761 -3.87882,1.66761l0.00017,0z" id="svg_4"/>
      </g>
     </g>
    </g>
   </g>
  </g>
 </g>

</svg>